<?xml version="1.0" encoding="UTF-8" standalone="no"?>
<svg
   xmlns:dc="http://purl.org/dc/elements/1.1/"
   xmlns:cc="http://creativecommons.org/ns#"
   xmlns:rdf="http://www.w3.org/1999/02/22-rdf-syntax-ns#"
   xmlns:svg="http://www.w3.org/2000/svg"
   xmlns="http://www.w3.org/2000/svg"
   width="16px"
   height="16px"
   viewBox="0 0 43.39167 43.391666"
   version="1.1"
   id="svg8">
  <g transform="translate(-59.412617,-86.810585)">
    <path
       d="M 81.108451,91.094557 C 74.20276,106.63237 60.391377,103.17952 60.391377,115.26448 c 0,12.08495 20.717074,12.08496 20.717074,12.08496 0,0 20.717069,-1e-5 20.717069,-12.08496 0,-12.08496 -13.811378,-8.63212 -20.717069,-24.169923 z"
       style="fill:#ffffff;stroke:#000000;stroke-width:1.95752;stroke-linecap:butt;stroke-linejoin:miter;stroke-opacity:1"
       />
    <path
       style="fill:#ffffff;stroke:#000000;stroke-width:0.172642px;stroke-linecap:butt;stroke-linejoin:miter;stroke-opacity:1"
       d="M 81.108451,91.094557 C 74.20276,106.63237 60.391377,103.17952 60.391377,115.26448 c 0,12.08495 20.717074,12.08496 20.717074,12.08496 0,0 20.717069,-1e-5 20.717069,-12.08496 0,-12.08496 -13.811378,-8.63212 -20.717069,-24.169923 z" />
    <path
       transform="matrix(0.26458333,0,0,0.26458333,59.412617,86.810585)"
       d="M 48.378906 85.75 C 35.265777 110.97998 32.52653 133.76044 76.826172 151.26367 C 65.116163 136.54414 51.517055 113.94792 48.378906 85.75 z "
       style="fill:#e6e6e6;stroke:none;stroke-width:0.65250500000000000px;stroke-linecap:butt;stroke-linejoin:miter;stroke-opacity:1"
       />
    <path
       transform="matrix(0.26458333,0,0,0.26458333,59.412617,86.810585)"
       d="M 9.890625 85.328125 C 6.0092121 90.949948 3.6992188 97.947755 3.6992188 107.54297 C 3.6992188 131.24369 24.780492 142.62941 45.066406 148.11523 C 34.120368 134.04614 19.013902 111.61231 9.890625 85.328125 z "
       style="fill:#e6e6e6;stroke:none;stroke-width:0.65250500000000000px;stroke-linecap:butt;stroke-linejoin:miter;stroke-opacity:1;fill-opacity:1"
       />
    <path
       style="fill:none;stroke:#000000;stroke-width:0.652506;stroke-linecap:butt;stroke-linejoin:miter;stroke-opacity:1"
       d="m 81.108452,91.094558 c -1.726423,13.811382 -24.169919,27.622762 0,36.254872"
       />
    <path
       style="fill:none;stroke:#000000;stroke-width:0.652506;stroke-linecap:butt;stroke-linejoin:miter;stroke-opacity:1"
       d="m 81.108452,91.094558 c 10e-7,18.990652 12.08496,29.349182 0,36.254872"
       />
  </g>
</svg>
