<?xml version="1.0" encoding="UTF-8" standalone="no"?>
<svg
   xmlns:dc="http://purl.org/dc/elements/1.1/"
   xmlns:cc="http://creativecommons.org/ns#"
   xmlns:rdf="http://www.w3.org/1999/02/22-rdf-syntax-ns#"
   xmlns:svg="http://www.w3.org/2000/svg"
   xmlns="http://www.w3.org/2000/svg"
   xmlns:sodipodi="http://sodipodi.sourceforge.net/DTD/sodipodi-0.dtd"
   xmlns:inkscape="http://www.inkscape.org/namespaces/inkscape"
   width="210mm"
   height="297mm"
   viewBox="0 0 210 297"
   version="1.1"
   id="svg8"
   sodipodi:docname="icons.svg"
   inkscape:version="1.0 (4035a4f, 2020-05-01)">
  <defs
     id="defs2">
    <inkscape:path-effect
       background_color="#ffffffff"
       background="false"
       hide_mask="false"
       invert="false"
       uri="#mask-powermask-path-effect2285"
       lpeversion="0"
       is_visible="true"
       id="path-effect2285"
       effect="powermask" />
    <inkscape:path-effect
       background_color="#ffffffff"
       background="false"
       hide_mask="false"
       invert="false"
       uri="#mask-powermask-path-effect2247"
       lpeversion="0"
       is_visible="true"
       id="path-effect2247"
       effect="powermask" />
    <inkscape:path-effect
       effect="powermask"
       id="path-effect880"
       is_visible="true"
       lpeversion="0"
       uri="#mask-powermask-path-effect880"
       invert="false"
       hide_mask="false"
       background="false"
       background_color="#ffffffff" />
    <mask
       maskUnits="userSpaceOnUse"
       id="mask860">
      <path
         style="fill:#b3b3b3;stroke:#000000;stroke-width:0.264583px;stroke-linecap:butt;stroke-linejoin:miter;stroke-opacity:1"
         d="m 78.707819,114.98239 c -0.522981,24.25811 19.161667,40.11075 19.161667,40.11075 l -32.424343,-7.4739 z"
         id="path862"
         sodipodi:nodetypes="cccc" />
    </mask>
    <mask
       maskUnits="userSpaceOnUse"
       id="mask868">
      <path
         d="m 92.604167,92.604167 c -10.583334,23.812503 -31.75,18.520833 -31.75,37.041663 0,18.52083 31.75,18.52083 31.75,18.52083 0,0 31.749993,0 31.749993,-18.52083 0,-18.52083 -21.16666,-13.22916 -31.749993,-37.041663 z"
         style="fill:#333333;stroke:#000000;stroke-width:0.264583px;stroke-linecap:butt;stroke-linejoin:miter;stroke-opacity:1"
         id="path870" />
    </mask>
    <mask
       maskUnits="userSpaceOnUse"
       id="mask876">
      <path
         sodipodi:nodetypes="cc"
         id="path878"
         d="m 92.604167,92.604167 c 0,29.104163 18.520833,44.979163 0,55.562493"
         style="fill:none;stroke:#000000;stroke-width:0.26458300000000001px;stroke-linecap:butt;stroke-linejoin:miter;stroke-opacity:1" />
    </mask>
    <mask
       id="mask-powermask-path-effect880"
       maskUnits="userSpaceOnUse">
      <path
         style="fill:none;stroke:#000000;stroke-width:0.26458300000000001px;stroke-linecap:butt;stroke-linejoin:miter;stroke-opacity:1"
         d="m 92.604167,92.604167 c 0,29.104163 18.520833,44.979163 0,55.562493"
         id="path1184"
         sodipodi:nodetypes="cc" />
    </mask>
    <filter
       id="mask-powermask-path-effect880_inverse"
       inkscape:label="filtermask-powermask-path-effect880"
       style="color-interpolation-filters:sRGB"
       height="100"
       width="100"
       x="-50"
       y="-50">
      <feColorMatrix
         id="mask-powermask-path-effect880_primitive1"
         values="1"
         type="saturate"
         result="fbSourceGraphic" />
      <feColorMatrix
         id="mask-powermask-path-effect880_primitive2"
         values="-1 0 0 0 1 0 -1 0 0 1 0 0 -1 0 1 0 0 0 1 0 "
         in="fbSourceGraphic" />
    </filter>
    <mask
       maskUnits="userSpaceOnUse"
       id="mask-powermask-path-effect2247">
      <path
         sodipodi:nodetypes="cc"
         id="path2249"
         d="m 92.604167,92.604167 c 0,29.104163 18.520833,44.979163 0,55.562493"
         style="fill:none;stroke:#000000;stroke-width:0.26458300000000001px;stroke-linecap:butt;stroke-linejoin:miter;stroke-opacity:1" />
    </mask>
    <filter
       id="mask-powermask-path-effect2247_inverse"
       inkscape:label="filtermask-powermask-path-effect2247"
       style="color-interpolation-filters:sRGB"
       height="100"
       width="100"
       x="-50"
       y="-50">
      <feColorMatrix
         id="mask-powermask-path-effect2247_primitive1"
         values="1"
         type="saturate"
         result="fbSourceGraphic" />
      <feColorMatrix
         id="mask-powermask-path-effect2247_primitive2"
         values="-1 0 0 0 1 0 -1 0 0 1 0 0 -1 0 1 0 0 0 1 0 "
         in="fbSourceGraphic" />
    </filter>
    <mask
       maskUnits="userSpaceOnUse"
       id="mask-powermask-path-effect2285">
      <path
         sodipodi:nodetypes="cc"
         id="path2289"
         d="m 92.604167,92.604167 c 0,29.104163 18.520833,44.979163 0,55.562493"
         style="fill:none;stroke:#000000;stroke-width:0.26458300000000001px;stroke-linecap:butt;stroke-linejoin:miter;stroke-opacity:1" />
    </mask>
    <filter
       id="mask-powermask-path-effect2285_inverse"
       inkscape:label="filtermask-powermask-path-effect2285"
       style="color-interpolation-filters:sRGB"
       height="100"
       width="100"
       x="-50"
       y="-50">
      <feColorMatrix
         id="mask-powermask-path-effect2285_primitive1"
         values="1"
         type="saturate"
         result="fbSourceGraphic" />
      <feColorMatrix
         id="mask-powermask-path-effect2285_primitive2"
         values="-1 0 0 0 1 0 -1 0 0 1 0 0 -1 0 1 0 0 0 1 0 "
         in="fbSourceGraphic" />
    </filter>
  </defs>
  <sodipodi:namedview
     id="base"
     pagecolor="#ffffff"
     bordercolor="#666666"
     borderopacity="1.0"
     inkscape:pageopacity="0.0"
     inkscape:pageshadow="2"
     inkscape:zoom="1.5496347"
     inkscape:cx="559.88415"
     inkscape:cy="140.92339"
     inkscape:document-units="mm"
     inkscape:current-layer="layer1"
     inkscape:document-rotation="0"
     showgrid="false"
     inkscape:window-width="1920"
     inkscape:window-height="1155"
     inkscape:window-x="0"
     inkscape:window-y="23"
     inkscape:window-maximized="0">
    <inkscape:grid
       type="xygrid"
       id="grid833" />
  </sodipodi:namedview>
  <metadata
     id="metadata5">
    <rdf:RDF>
      <cc:Work
         rdf:about="">
        <dc:format>image/svg+xml</dc:format>
        <dc:type
           rdf:resource="http://purl.org/dc/dcmitype/StillImage" />
        <dc:title />
      </cc:Work>
    </rdf:RDF>
  </metadata>
  <g
     inkscape:label="Layer 1"
     inkscape:groupmode="layer"
     id="layer1">
    <path
       d="m 91.338952,20.486993 c -10.583333,23.812505 -31.75,18.520835 -31.75,37.041666 0,18.52083 31.75,18.520833 31.75,18.520833 0,0 31.749998,-3e-6 31.749998,-18.520833 0,-18.520831 -21.16666,-13.229164 -31.749998,-37.041666 z"
       style="fill:none;stroke:#000000;stroke-width:0.264583px;stroke-linecap:butt;stroke-linejoin:miter;stroke-opacity:1"
       id="path2235" />
    <path
       sodipodi:nodetypes="cc"
       id="path2237"
       d="m 91.338952,20.486993 c -2.645833,21.166664 -37.041666,42.333334 0,55.562494"
       style="fill:none;stroke:#000000;stroke-width:0.264583px;stroke-linecap:butt;stroke-linejoin:miter;stroke-opacity:1" />
    <path
       sodipodi:nodetypes="cc"
       id="path2239"
       d="m 91.338952,20.486993 c 10e-7,29.104164 18.520838,44.979164 0,55.562494"
       style="fill:none;stroke:#000000;stroke-width:0.264583px;stroke-linecap:butt;stroke-linejoin:miter;stroke-opacity:1" />
    <path
       mask="url(#mask860)"
       style="fill:#e6e6e6;stroke:#000000;stroke-width:0.264583px;stroke-linecap:butt;stroke-linejoin:miter;stroke-opacity:1"
       d="m 92.604166,92.604166 c -2.645833,21.166664 -37.041666,42.333334 0,55.562494"
       id="path2241"
       sodipodi:nodetypes="cc"
       transform="translate(-1.2652136,-72.117173)" />
    <path
       mask="url(#mask868)"
       id="path2243"
       d="m 61.342383,113.52559 c 4.700103,21.57227 21.692788,38.9265 21.692788,38.9265 L 56.88331,138.23126 Z"
       style="fill:#808080;stroke:none;stroke-width:0.264583px;stroke-linecap:butt;stroke-linejoin:miter;stroke-opacity:1"
       transform="translate(-1.2652136,-72.117173)" />
    <path
       inkscape:original-d="m 97.014965,124.37198 c 10.002785,7.71299 10.033005,11.50903 7.712995,16.99269 -2.65134,6.2668 -16.390108,5.78474 -16.390108,5.78474 z"
       inkscape:path-effect="#path-effect2247"
       mask="url(#mask-powermask-path-effect2247)"
       sodipodi:nodetypes="cscc"
       id="path2245"
       d="m 97.014965,124.37198 c 10.002785,7.71299 10.033005,11.50903 7.712995,16.99269 -2.65134,6.2668 -16.390108,5.78474 -16.390108,5.78474 z"
       style="fill:#333333;stroke:#000000;stroke-width:0.264583px;stroke-linecap:butt;stroke-linejoin:miter;stroke-opacity:1"
       transform="translate(-1.2652136,-72.117173)" />
    <g
       id="g2265"
       transform="matrix(0.65250627,0,0,0.65250627,20.683653,30.669759)">
      <path
         id="path2256"
         style="fill:#ffffff;stroke:#000000;stroke-width:11.3386;stroke-linecap:butt;stroke-linejoin:miter;stroke-opacity:1"
         d="m 350,350 c -40,90.00002 -120,70.00001 -120,140 0,69.99999 120,70 120,70 0,0 120,-10e-6 120,-70 0,-69.99999 -80,-49.99999 -120,-140 z"
         transform="scale(0.26458333)" />
      <path
         transform="scale(0.26458333)"
         d="m 350,350 c -40,90.00002 -120,70.00001 -120,140 0,69.99999 120,70 120,70 0,0 120,-10e-6 120,-70 0,-69.99999 -80,-49.99999 -120,-140 z"
         style="fill:#ffffff;stroke:#000000;stroke-width:0.999999px;stroke-linecap:butt;stroke-linejoin:miter;stroke-opacity:1"
         id="path835" />
      <path
         mask="url(#mask860)"
         style="fill:#e6e6e6;stroke:#000000;stroke-width:0.264583px;stroke-linecap:butt;stroke-linejoin:miter;stroke-opacity:1"
         d="m 92.604166,92.604166 c -2.645833,21.166664 -37.041666,42.333334 0,55.562494"
         id="path844"
         sodipodi:nodetypes="cc" />
      <path
         mask="url(#mask868)"
         id="path864"
         d="m 61.342383,113.52559 c 4.700103,21.57227 21.692788,38.9265 21.692788,38.9265 L 56.88331,138.23126 Z"
         style="fill:#808080;stroke:none;stroke-width:0.264583px;stroke-linecap:butt;stroke-linejoin:miter;stroke-opacity:1" />
      <path
         inkscape:original-d="m 97.014965,124.37198 c 10.002785,7.71299 10.033005,11.50903 7.712995,16.99269 -2.65134,6.2668 -16.390108,5.78474 -16.390108,5.78474 z"
         inkscape:path-effect="#path-effect880"
         mask="url(#mask-powermask-path-effect880)"
         sodipodi:nodetypes="cscc"
         id="path872"
         d="m 97.014965,124.37198 c 10.002785,7.71299 10.033005,11.50903 7.712995,16.99269 -2.65134,6.2668 -16.390108,5.78474 -16.390108,5.78474 z"
         style="fill:#333333;stroke:#000000;stroke-width:0.264583px;stroke-linecap:butt;stroke-linejoin:miter;stroke-opacity:1" />
      <path
         sodipodi:nodetypes="cc"
         id="path840"
         d="m 92.604166,92.604166 c -2.645833,21.166664 -37.041666,42.333334 0,55.562494"
         style="fill:none;stroke:#000000;stroke-width:1;stroke-linecap:butt;stroke-linejoin:miter;stroke-opacity:1" />
      <path
         sodipodi:nodetypes="cc"
         id="path842"
         d="m 92.604166,92.604166 c 10e-7,29.104164 18.520834,44.979164 0,55.562494"
         style="fill:none;stroke:#000000;stroke-width:1;stroke-linecap:butt;stroke-linejoin:miter;stroke-opacity:1" />
    </g>
    <rect
       style="fill:#808080;fill-opacity:0.155425;stroke-width:0.958358"
       id="rect2267"
       width="43.391666"
       height="43.391666"
       x="59.412617"
       y="86.810585"
       inkscape:export-xdpi="299.70731"
       inkscape:export-ydpi="299.70731" />
    <g
       transform="matrix(0.65250627,0,0,0.65250627,102.47575,28.375863)"
       id="g2283"
       inkscape:export-xdpi="297.60001"
       inkscape:export-ydpi="297.60001">
      <path
         transform="scale(0.26458333)"
         d="m 350,350 c -40,90.00002 -120,70.00001 -120,140 0,69.99999 120,70 120,70 0,0 120,-10e-6 120,-70 0,-69.99999 -80,-49.99999 -120,-140 z"
         style="fill:#ffffff;stroke:#000000;stroke-width:11.3386;stroke-linecap:butt;stroke-linejoin:miter;stroke-opacity:1"
         id="path2269" />
      <path
         id="path2271"
         style="fill:#ffffff;stroke:#000000;stroke-width:0.999999px;stroke-linecap:butt;stroke-linejoin:miter;stroke-opacity:1"
         d="m 350,350 c -40,90.00002 -120,70.00001 -120,140 0,69.99999 120,70 120,70 0,0 120,-10e-6 120,-70 0,-69.99999 -80,-49.99999 -120,-140 z"
         transform="scale(0.26458333)" />
      <path
         sodipodi:nodetypes="cc"
         id="path2273"
         d="m 92.604166,92.604166 c -2.645833,21.166664 -37.041666,42.333334 0,55.562494"
         style="fill:#e6e6e6;stroke:#000000;stroke-width:0.264583px;stroke-linecap:butt;stroke-linejoin:miter;stroke-opacity:1"
         mask="url(#mask860)" />
      <path
         style="fill:#808080;stroke:none;stroke-width:0.264583px;stroke-linecap:butt;stroke-linejoin:miter;stroke-opacity:1"
         d="m 61.342383,113.52559 c 4.700103,21.57227 21.692788,38.9265 21.692788,38.9265 L 56.88331,138.23126 Z"
         id="path2275"
         mask="url(#mask868)" />
      <path
         style="fill:#333333;stroke:#000000;stroke-width:0.264583px;stroke-linecap:butt;stroke-linejoin:miter;stroke-opacity:1"
         d="m 97.014965,124.37198 c 10.002785,7.71299 10.033005,11.50903 7.712995,16.99269 -2.65134,6.2668 -16.390108,5.78474 -16.390108,5.78474 z"
         id="path2277"
         sodipodi:nodetypes="cscc"
         mask="url(#mask-powermask-path-effect2285)"
         inkscape:path-effect="#path-effect2285"
         inkscape:original-d="m 97.014965,124.37198 c 10.002785,7.71299 10.033005,11.50903 7.712995,16.99269 -2.65134,6.2668 -16.390108,5.78474 -16.390108,5.78474 z" />
      <path
         style="fill:none;stroke:#000000;stroke-width:1;stroke-linecap:butt;stroke-linejoin:miter;stroke-opacity:1"
         d="m 92.604166,92.604166 c -2.645833,21.166664 -37.041666,42.333334 0,55.562494"
         id="path2279"
         sodipodi:nodetypes="cc" />
      <path
         style="fill:none;stroke:#000000;stroke-width:1;stroke-linecap:butt;stroke-linejoin:miter;stroke-opacity:1"
         d="m 92.604166,92.604166 c 10e-7,29.104164 18.520834,44.979164 0,55.562494"
         id="path2281"
         sodipodi:nodetypes="cc" />
    </g>
    <rect
       inkscape:export-ydpi="297.60001"
       inkscape:export-xdpi="297.60001"
       y="77.108353"
       x="133.79639"
       height="58.208332"
       width="58.208332"
       id="rect2287"
       style="fill:#b3b3b3;fill-opacity:0.155425;stroke-width:1.2856" />
    <path
       sodipodi:nodetypes="cccccc"
       id="path980"
       d="m 178.05388,11.858281 -34.67648,51.565555 6.82749,4.132432 8.98355,-12.756636 7.18683,3.593418 c 21.71884,-31.819948 11.67861,-46.534769 11.67861,-46.534769 z"
       style="fill:#ffffff;stroke:#000000;stroke-width:1.5;stroke-linecap:butt;stroke-linejoin:miter;stroke-opacity:1" />
    <path
       style="fill:#dddddd;fill-opacity:0.560784;stroke:#000000;stroke-width:1.5;stroke-linecap:butt;stroke-linejoin:miter;stroke-opacity:1"
       d="m 156.3081,44.195278 -12.9307,19.228558 6.82749,4.132432 8.98355,-12.756636 C 155.59468,50.486518 156.3081,44.195278 156.3081,44.195278 Z"
       id="path982"
       sodipodi:nodetypes="ccccc" />
  </g>
</svg>
